<?xml version="1.0" standalone="no"?>
<!DOCTYPE svg PUBLIC "-//W3C//DTD SVG 20010904//EN"
 "http://www.w3.org/TR/2001/REC-SVG-20010904/DTD/svg10.dtd">
<svg version="1.0" xmlns="http://www.w3.org/2000/svg"
 width="256.000000pt" height="256.000000pt" viewBox="0 0 256.000000 256.000000"
 preserveAspectRatio="xMidYMid meet">

<g transform="translate(0.000000,256.000000) scale(0.100000,-0.100000)"
fill="#000000" stroke="none">
<path d="M1125 2549 c-303 -42 -561 -172 -766 -385 -170 -178 -278 -383 -330
-625 -32 -147 -32 -371 0 -519 107 -501 490 -884 992 -991 147 -32 371 -32
518 0 502 107 885 490 992 991 18 83 22 137 22 260 0 123 -4 177 -22 260 -107
501 -496 889 -992 990 -120 25 -311 33 -414 19z m-37 -431 c21 -21 13 -38 -64
-126 -41 -48 -106 -133 -145 -190 -219 -326 -250 -572 -109 -868 52 -108 159
-266 254 -376 42 -48 76 -93 76 -101 0 -32 -28 -40 -113 -34 -427 30 -761 479
-707 951 24 214 102 377 250 527 121 122 240 190 385 219 63 12 160 11 173 -2z
m649 -21 c239 -82 428 -277 511 -530 139 -422 -39 -886 -413 -1072 -164 -82
-365 -102 -365 -37 0 7 34 52 76 100 94 108 212 283 258 383 136 294 104 538
-113 861 -39 57 -104 142 -145 190 -78 89 -85 104 -63 127 19 20 167 7 254
-22z m-528 -530 l74 -137 75 140 76 140 93 0 c70 0 95 -3 99 -14 3 -7 -33 -83
-80 -167 l-85 -154 67 -3 c38 -2 70 -8 74 -15 9 -14 10 -99 2 -121 -5 -13 -25
-16 -110 -16 l-104 0 0 -35 0 -35 105 0 c119 0 120 -1 113 -91 l-3 -44 -107
-3 -107 -3 -3 -82 -3 -82 -105 0 -105 0 -3 82 -3 82 -102 3 -102 3 0 65 0 65
103 3 102 3 0 34 0 34 -102 3 -103 3 0 70 0 70 68 3 c37 2 67 6 67 9 0 4 -36
74 -81 156 -44 82 -78 156 -75 164 4 11 26 13 98 11 l93 -3 74 -138z"/>
<path d="M865 2016 c-73 -23 -182 -87 -244 -143 -108 -97 -181 -216 -227 -370
-24 -77 -27 -105 -27 -228 0 -123 3 -151 27 -228 67 -224 195 -382 381 -472
49 -25 107 -47 128 -51 l37 -6 -85 113 c-102 136 -204 334 -236 459 -68 263
16 543 257 858 68 87 67 92 -11 68z"/>
<path d="M1715 1919 c100 -133 204 -334 236 -454 29 -111 29 -271 0 -380 -32
-121 -136 -321 -236 -454 l-85 -113 37 6 c21 4 81 27 133 53 80 39 109 60 180
132 98 99 153 193 196 336 24 79 27 106 27 230 0 123 -3 151 -27 228 -67 224
-195 382 -381 472 -49 25 -107 47 -128 51 l-37 6 85 -113z"/>
</g>
</svg>
