<svg width="256" height="256" viewBox="0 0 256 256" fill="none" xmlns="http://www.w3.org/2000/svg">
<path fill-rule="evenodd" clip-rule="evenodd" d="M256 128C256 198.692 198.692 256 128 256C57.3076 256 0 198.692 0 128C0 57.3076 57.3076 0 128 0C198.692 0 256 57.3076 256 128ZM105.471 43.0078L105.602 43.0099L105.892 43.0295L106.218 43.0765L106.579 43.1607L106.973 43.2932L107.388 43.4841L107.808 43.7402L108.213 44.061L108.58 44.437L108.891 44.85L109.137 45.2777L109.318 45.699L109.441 46.0975L109.517 46.4633L109.555 46.792L109.567 47.0836L109.565 47.2161L109.412 48.082L109.365 48.3181L109.323 48.497L109.296 48.5929L109.267 48.6756L109.237 48.7503L109.202 48.8218L109.092 49.0187L108.912 49.3185L108.814 49.4746L108.761 49.5483L108.588 49.7629L108.443 49.9271L108.33 50.048L107.74 50.6587L106.909 51.5259L106.33 52.1377L105.598 52.9202C105.475 53.053 105.35 53.187 105.226 53.3222L104.467 54.1489L103.69 55.0072C103.559 55.153 103.427 55.3002 103.294 55.4489L102.486 56.3583L102.074 56.8265C97.2459 62.3334 92.4558 68.4076 87.9837 74.9463C87.8575 75.1309 87.7317 75.3154 87.6065 75.5L86.8615 76.6069L86.1288 77.7135C74.627 95.2302 67.8343 112.559 67.8306 128.505L67.8328 129.017C67.968 144.326 74.3183 160.895 85.0522 177.665L85.7663 178.771C86.1264 179.325 86.4913 179.878 86.8609 180.431L87.6062 181.539L87.9835 182.092C92.4548 188.629 97.2449 194.702 102.069 200.201L102.888 201.129C103.023 201.28 103.156 201.431 103.289 201.579L104.077 202.455L104.845 203.297L105.594 204.107C105.718 204.239 105.84 204.371 105.962 204.501L106.684 205.266L107.449 206.067L107.963 206.599L108.508 207.168L108.731 207.437L108.838 207.591L109.075 207.961L109.129 208.055L109.16 208.12L109.206 208.233L109.237 208.326L109.291 208.505L109.356 208.745L109.543 209.479L109.563 209.737L109.565 210.035L109.541 210.379L109.478 210.771L109.36 211.206L109.172 211.674L108.904 212.154L108.553 212.617L108.134 213.032L107.673 213.373L107.201 213.632L106.745 213.812L106.325 213.926L105.949 213.988L105.619 214.013L105.471 214.016C62.3947 214.016 27.6475 175.649 27.6475 128.512C27.6475 81.3749 62.3947 43.0078 105.471 43.0078ZM95.4101 52.0033L95.3031 52.0197C61.7346 57.4818 35.8395 89.5786 35.8395 128.512C35.8395 167.445 61.7346 199.542 95.1912 205.006L95.4199 205.041L95.2249 204.818C90.6576 199.558 86.1323 193.811 81.8608 187.645L81.222 186.718C80.9525 186.324 80.6852 185.93 80.4201 185.536L79.6311 184.354C67.1127 165.442 59.6367 146.52 59.6386 128.511L59.6412 127.941C59.8057 109.359 67.888 89.8172 81.2219 70.3216C85.7365 63.7208 90.5491 57.5889 95.4101 52.0033ZM151.421 43.0099L151.553 43.0078C194.629 43.0078 229.376 81.3749 229.376 128.512C229.376 175.649 194.629 214.016 151.553 214.016L151.404 214.013L151.074 213.988L150.698 213.926L150.278 213.812L149.823 213.632L149.35 213.373L148.889 213.032L148.47 212.617L148.12 212.154L147.851 211.674L147.664 211.206L147.546 210.771L147.482 210.379L147.458 210.035L147.461 209.737L147.48 209.479L147.668 208.745L147.733 208.505L147.786 208.326L147.818 208.233L147.863 208.12L147.895 208.055L147.949 207.961L148.186 207.591L148.292 207.437L148.516 207.168L149.06 206.599L149.575 206.067L150.34 205.266L151.062 204.501L151.193 204.36C151.271 204.276 151.35 204.192 151.429 204.107L152.178 203.297L152.946 202.455L153.734 201.579C153.867 201.431 154.001 201.28 154.136 201.129L154.955 200.201C159.779 194.702 164.569 188.629 169.04 182.092L169.417 181.539L170.163 180.431C170.532 179.878 170.897 179.325 171.257 178.771L171.971 177.665C182.705 160.895 189.055 144.326 189.191 129.017L189.193 128.505C189.189 112.559 182.396 95.2302 170.895 77.7135L170.162 76.6069L169.417 75.5C169.292 75.3154 169.166 75.1309 169.04 74.9463C164.568 68.4076 159.778 62.3334 154.949 56.8265L154.537 56.3583L153.73 55.4489C153.597 55.3002 153.465 55.153 153.334 55.0072L152.556 54.1489L151.798 53.3222C151.673 53.187 151.549 53.053 151.425 52.9202L150.693 52.1377L150.115 51.5259L149.283 50.6587L148.694 50.048L148.58 49.9271L148.435 49.7629L148.262 49.5483L148.21 49.4746L148.112 49.3185L147.931 49.0187L147.821 48.8218L147.787 48.7503L147.756 48.6756L147.728 48.5929L147.7 48.497L147.658 48.3181L147.611 48.082L147.458 47.2161L147.456 47.0836L147.468 46.792L147.507 46.4633L147.582 46.0975L147.705 45.699L147.886 45.2777L148.132 44.85L148.444 44.437L148.811 44.061L149.215 43.7402L149.636 43.4841L150.051 43.2932L150.444 43.1607L150.806 43.0765L151.132 43.0295L151.421 43.0099ZM161.72 52.0197L161.613 52.0033C166.474 57.5889 171.287 63.7208 175.802 70.3216C189.135 89.8172 197.218 109.359 197.382 127.941L197.385 128.511C197.387 146.52 189.911 165.442 177.392 184.354L176.603 185.536C176.338 185.93 176.071 186.324 175.801 186.718L175.163 187.645C170.891 193.811 166.366 199.558 161.799 204.818L161.604 205.041L161.832 205.006C195.289 199.542 221.184 167.445 221.184 128.512C221.184 89.5786 195.289 57.4818 161.72 52.0197ZM96.2648 85.2173H111.763C112.506 85.2173 113.19 85.6244 113.545 86.278L127.943 112.819C127.983 112.892 128.043 112.952 128.117 112.992C128.326 113.105 128.587 113.027 128.7 112.818L143.053 86.2802C143.407 85.6254 144.092 85.2173 144.837 85.2173H160.737C161.079 85.2173 161.415 85.3038 161.715 85.4687C162.696 86.0089 163.053 87.2419 162.513 88.2228L145.807 118.562C145.772 118.626 145.753 118.697 145.753 118.77C145.753 119.007 145.946 119.2 146.184 119.2H158.276C159.396 119.2 160.304 120.108 160.304 121.227V131.898C160.304 133.018 159.396 133.925 158.276 133.925H139.005C138.768 133.925 138.575 134.118 138.575 134.355V140.816C138.575 141.054 138.768 141.246 139.005 141.246H158.276C159.396 141.246 160.304 142.154 160.304 143.274V152.979C160.304 154.099 159.396 155.006 158.276 155.006H139.005C138.768 155.006 138.575 155.199 138.575 155.437V169.779C138.575 170.899 137.667 171.807 136.548 171.807H119.559C118.439 171.807 117.532 170.899 117.532 169.779V155.437C117.532 155.199 117.339 155.006 117.102 155.006H98.25C97.1303 155.006 96.2225 154.099 96.2225 152.979V143.274C96.2225 142.154 97.1303 141.246 98.25 141.246H117.102C117.339 141.246 117.532 141.054 117.532 140.816V134.355C117.532 134.118 117.339 133.925 117.102 133.925H98.25C97.1303 133.925 96.2225 133.018 96.2225 131.898V121.227C96.2225 120.108 97.1303 119.2 98.25 119.2H110.437C110.508 119.2 110.579 119.182 110.641 119.149C110.85 119.036 110.929 118.775 110.816 118.566L94.4794 88.2055C94.3205 87.9102 94.2373 87.5801 94.2373 87.2448C94.2373 86.125 95.1451 85.2173 96.2648 85.2173Z" fill="white"/>
</svg>
