<svg width="963" height="256" viewBox="0 0 963 256" fill="none" xmlns="http://www.w3.org/2000/svg">
<path d="M332.388 130.109C329.481 130.109 326.388 129.828 323.106 129.266C319.919 128.703 317.481 128 315.794 127.156V108.735C317.2 109.391 318.981 109.906 321.138 110.281C323.294 110.656 325.45 110.844 327.606 110.844C331.825 110.844 334.966 109.86 337.028 107.891C339.091 105.922 340.122 102.828 340.122 98.6096V29.704H361.497V100.578C361.497 109.672 358.965 116.891 353.903 122.234C348.841 127.484 341.669 130.109 332.388 130.109ZM377.207 29.704H418.55C429.707 29.704 438.613 32.6571 445.269 38.5633C451.925 44.3757 455.253 52.485 455.253 62.8912C455.253 73.5786 451.925 81.7816 445.269 87.5003C438.706 93.219 429.8 96.0784 418.55 96.0784H398.582V128H377.207V29.704ZM415.457 78.2192C427.55 78.2192 433.597 73.1098 433.597 62.8912C433.597 57.1725 431.957 53.1881 428.675 50.9382C425.488 48.6882 421.082 47.5632 415.457 47.5632H398.582V78.2192H415.457ZM492 90.5941L456 29.704H478.781L502.547 70.6255L527.156 29.704H549.796L512.953 90.5941V128H492V90.5941ZM601.611 130.109C591.111 130.109 581.83 128.047 573.767 123.922C565.705 119.703 559.47 113.75 555.064 106.063C550.658 98.3753 548.455 89.3285 548.455 78.9223C548.455 68.5161 550.658 59.4693 555.064 51.7819C559.47 44.0007 565.705 38.0476 573.767 33.9227C581.83 29.704 591.111 27.5946 601.611 27.5946C615.204 27.5946 626.548 30.6883 635.642 36.8758V57.1256C631.517 53.6569 626.782 51.1725 621.439 49.6725C616.189 48.0788 610.189 47.2819 603.439 47.2819C593.22 47.2819 585.111 50.1413 579.111 55.86C573.205 61.4849 570.252 69.1724 570.252 78.9223C570.252 88.766 573.252 96.5471 579.252 102.266C585.251 107.891 593.314 110.703 603.439 110.703C610.376 110.703 616.517 109.906 621.861 108.313C627.204 106.625 632.173 103.953 636.767 100.297V120.547C628.142 126.922 616.423 130.109 601.611 130.109ZM676.84 29.704H698.215V128H676.84V29.704ZM714.364 60.5006H734.895V68.7974C737.988 65.3287 741.645 62.7506 745.863 61.0631C750.176 59.2818 754.676 58.3912 759.363 58.3912C768.551 58.3912 775.394 60.8756 779.894 65.8443C784.488 70.7192 786.785 77.3286 786.785 85.6722V128H765.551V88.0628C765.551 79.3442 761.519 74.9848 753.457 74.9848C749.894 74.9848 746.566 75.8754 743.473 77.6567C740.379 79.3442 737.754 81.8754 735.598 85.2504V128H714.364V60.5006ZM806.364 75.8286H796.661V60.5006H806.364V50.5163C806.364 41.7976 809.036 35.0945 814.38 30.4071C819.724 25.7196 826.661 23.3759 835.192 23.3759C840.067 23.3759 844.286 24.1259 847.848 25.6259V42.6413C845.13 41.4226 842.27 40.8132 839.27 40.8132C835.333 40.8132 832.38 41.7039 830.411 43.4851C828.536 45.2663 827.599 48.1726 827.599 52.2038V60.5006H843.63V75.8286H827.599V128H806.364V75.8286ZM893.43 130.109C885.274 130.109 878.102 128.656 871.915 125.75C865.821 122.75 861.087 118.578 857.712 113.235C854.431 107.797 852.79 101.469 852.79 94.2503C852.79 87.2191 854.431 80.9848 857.712 75.5473C861.087 70.1099 865.821 65.8912 871.915 62.8912C878.102 59.8912 885.274 58.3912 893.43 58.3912C901.493 58.3912 908.571 59.8912 914.665 62.8912C920.852 65.8912 925.586 70.1099 928.868 75.5473C932.243 80.9848 933.93 87.2191 933.93 94.2503C933.93 101.469 932.243 107.797 928.868 113.235C925.586 118.578 920.899 122.75 914.805 125.75C908.711 128.656 901.587 130.109 893.43 130.109ZM893.43 113.516C899.149 113.516 903.696 111.781 907.071 108.313C910.446 104.75 912.133 100.063 912.133 94.2503C912.133 88.2503 910.446 83.5629 907.071 80.1879C903.79 76.7192 899.243 74.9848 893.43 74.9848C887.618 74.9848 883.024 76.7192 879.649 80.1879C876.274 83.5629 874.587 88.2503 874.587 94.2503C874.587 100.063 876.274 104.75 879.649 108.313C883.118 111.781 887.712 113.516 893.43 113.516Z" fill="white"/>
<path d="M348.24 229.268C338.46 229.268 331.077 226.711 326.091 221.598C321.106 216.42 318.613 209.485 318.613 200.792V160.81H333.187V200.983C333.187 205.841 334.529 209.549 337.213 212.106C339.898 214.662 343.574 215.941 348.24 215.941C352.842 215.941 356.453 214.662 359.074 212.106C361.759 209.549 363.101 205.841 363.101 200.983V160.81H377.675V200.792C377.675 209.485 375.214 216.42 370.292 221.598C365.37 226.711 358.019 229.268 348.24 229.268ZM388.216 181.807H402.214V187.464C404.323 185.099 406.816 183.342 409.693 182.191C412.633 180.977 415.701 180.369 418.897 180.369C425.161 180.369 429.827 182.063 432.896 185.451C436.028 188.775 437.594 193.281 437.594 198.97V227.83H423.116V200.6C423.116 194.655 420.367 191.683 414.87 191.683C412.441 191.683 410.172 192.29 408.063 193.505C405.953 194.655 404.164 196.381 402.693 198.682V227.83H388.216V181.807ZM473.955 229.268C468.394 229.268 463.504 228.277 459.285 226.296C455.13 224.25 451.902 221.406 449.601 217.762C447.364 214.055 446.245 209.74 446.245 204.819C446.245 200.025 447.364 195.774 449.601 192.067C451.902 188.359 455.13 185.483 459.285 183.437C463.504 181.392 468.394 180.369 473.955 180.369C479.452 180.369 484.278 181.392 488.433 183.437C492.651 185.483 495.879 188.359 498.116 192.067C500.417 195.774 501.568 200.025 501.568 204.819C501.568 209.74 500.417 214.055 498.116 217.762C495.879 221.406 492.683 224.25 488.528 226.296C484.374 228.277 479.516 229.268 473.955 229.268ZM473.955 217.954C477.854 217.954 480.954 216.772 483.255 214.407C485.556 211.978 486.707 208.782 486.707 204.819C486.707 200.728 485.556 197.532 483.255 195.231C481.018 192.866 477.918 191.683 473.955 191.683C469.992 191.683 466.86 192.866 464.558 195.231C462.257 197.532 461.107 200.728 461.107 204.819C461.107 208.782 462.257 211.978 464.558 214.407C466.923 216.772 470.056 217.954 473.955 217.954ZM510.048 192.258H503.432V181.807H510.048V175C510.048 169.055 511.87 164.485 515.513 161.289C519.157 158.093 523.887 156.495 529.704 156.495C533.027 156.495 535.904 157.007 538.333 158.029V169.631C536.479 168.8 534.53 168.384 532.484 168.384C529.799 168.384 527.786 168.992 526.444 170.206C525.165 171.421 524.526 173.402 524.526 176.151V181.807H535.456V192.258H524.526V227.83H510.048V192.258ZM546.4 192.258H539.784V181.807H546.4V175.288C546.4 171.325 547.295 167.937 549.085 165.124C550.875 162.248 553.303 160.107 556.372 158.7C559.504 157.23 562.987 156.495 566.823 156.495C570.146 156.495 573.023 157.007 575.452 158.029V169.631C573.598 168.8 571.648 168.384 569.603 168.384C566.727 168.384 564.553 169.087 563.083 170.494C561.613 171.836 560.878 173.818 560.878 176.438V181.807H594.244V227.83H579.766V192.258H560.878V227.83H546.4V192.258ZM586.861 174.712C584.624 174.712 582.739 173.977 581.205 172.507C579.734 171.037 578.999 169.183 578.999 166.946C578.999 164.773 579.766 162.951 581.3 161.481C582.834 159.947 584.688 159.18 586.861 159.18C589.099 159.18 590.984 159.947 592.518 161.481C594.052 162.951 594.819 164.773 594.819 166.946C594.819 169.183 594.052 171.037 592.518 172.507C590.984 173.977 589.099 174.712 586.861 174.712ZM631.033 229.268C622.723 229.268 616.108 227.159 611.186 222.94C606.264 218.657 603.803 212.649 603.803 204.915C603.803 197.18 606.264 191.172 611.186 186.889C616.171 182.543 622.819 180.369 631.129 180.369C638.671 180.369 644.68 181.776 649.154 184.588V195.998C647.109 194.528 644.712 193.441 641.963 192.738C639.279 192.035 636.434 191.683 633.43 191.683C628.955 191.683 625.376 192.77 622.691 194.943C620.007 197.116 618.664 200.44 618.664 204.915C618.664 209.389 619.975 212.713 622.595 214.886C625.28 216.995 628.86 218.05 633.334 218.05C639.534 218.05 644.999 216.548 649.729 213.544V224.858C644.999 227.798 638.767 229.268 631.033 229.268ZM666.697 174.712C664.46 174.712 662.574 173.977 661.04 172.507C659.506 171.037 658.739 169.183 658.739 166.946C658.739 164.773 659.506 162.951 661.04 161.481C662.574 159.947 664.46 159.18 666.697 159.18C668.934 159.18 670.82 159.947 672.354 161.481C673.888 162.951 674.655 164.773 674.655 166.946C674.655 169.183 673.888 171.037 672.354 172.507C670.82 173.977 668.934 174.712 666.697 174.712ZM659.41 181.807H673.984V227.83H659.41V181.807ZM702.703 229.268C697.078 229.268 692.476 227.862 688.896 225.049C685.381 222.173 683.623 218.274 683.623 213.352C683.623 208.238 685.317 204.275 688.705 201.463C692.092 198.586 696.886 197.148 703.087 197.148C705.835 197.148 708.456 197.436 710.949 198.011C713.442 198.586 715.647 199.385 717.564 200.408V199.258C717.564 196.381 716.542 194.272 714.496 192.93C712.451 191.587 709.319 190.916 705.1 190.916C699.475 190.916 694.298 191.971 689.567 194.08V183.533C691.613 182.638 694.266 181.903 697.526 181.328C700.785 180.689 704.045 180.369 707.305 180.369C715.615 180.369 721.815 182.095 725.906 185.547C729.997 188.935 732.042 193.697 732.042 199.833V227.83H718.427V223.611C714.528 227.382 709.287 229.268 702.703 229.268ZM706.634 219.68C708.999 219.68 711.14 219.233 713.058 218.338C714.976 217.443 716.478 216.196 717.564 214.598V209.996C714.304 207.823 710.725 206.736 706.826 206.736C704.141 206.736 702.064 207.312 700.594 208.462C699.187 209.549 698.484 211.179 698.484 213.352C698.484 215.397 699.187 216.963 700.594 218.05C702 219.137 704.013 219.68 706.634 219.68ZM742.585 156.975H757.063V227.83H742.585V156.975Z" fill="white"/>
<path d="M112.5 1.1C82.2 5.3 56.4 18.3 35.9 39.6C18.9 57.4 8.1 77.9 2.9 102.1C-0.3 116.8 -0.3 139.2 2.9 154C13.6 204.1 51.9 242.4 102.1 253.1C116.8 256.3 139.2 256.3 153.9 253.1C204.1 242.4 242.4 204.1 253.1 154C254.9 145.7 255.3 140.3 255.3 128C255.3 115.7 254.9 110.3 253.1 102C242.4 51.9 203.5 13.1 153.9 3C141.9 0.499996 122.8 -0.300004 112.5 1.1ZM108.8 44.2C110.9 46.3 110.1 48 102.4 56.8C98.3 61.6 91.8 70.1 87.9 75.8C66 108.4 62.9 133 77 162.6C82.2 173.4 92.9 189.2 102.4 200.2C106.6 205 110 209.5 110 210.3C110 213.5 107.2 214.3 98.7 213.7C56 210.7 22.6 165.8 28 118.6C30.4 97.2 38.2 80.9 53 65.9C65.1 53.7 77 46.9 91.5 44C97.8 42.8 107.5 42.9 108.8 44.2ZM173.7 46.3C197.6 54.5 216.5 74 224.8 99.3C238.7 141.5 220.9 187.9 183.5 206.5C167.1 214.7 147 216.7 147 210.2C147 209.5 150.4 205 154.6 200.2C164 189.4 175.8 171.9 180.4 161.9C194 132.5 190.8 108.1 169.1 75.8C165.2 70.1 158.7 61.6 154.6 56.8C146.8 47.9 146.1 46.4 148.3 44.1C150.2 42.1 165 43.4 173.7 46.3ZM120.9 99.3L128.3 113L135.8 99L143.4 85H152.7C159.7 85 162.2 85.3 162.6 86.4C162.9 87.1 159.3 94.7 154.6 103.1L146.1 118.5L152.8 118.8C156.6 119 159.8 119.6 160.2 120.3C161.1 121.7 161.2 130.2 160.4 132.4C159.9 133.7 157.9 134 149.4 134H139V137.5V141H149.5C161.4 141 161.5 141.1 160.8 150.1L160.5 154.5L149.8 154.8L139.1 155.1L138.8 163.3L138.5 171.5H128H117.5L117.2 163.3L116.9 155.1L106.7 154.8L96.5 154.5V148V141.5L106.8 141.2L117 140.9V137.5V134.1L106.8 133.8L96.5 133.5V126.5V119.5L103.3 119.2C107 119 110 118.6 110 118.3C110 117.9 106.4 110.9 101.9 102.7C97.5 94.5 94.1 87.1 94.4 86.3C94.8 85.2 97 85 104.2 85.2L113.5 85.5L120.9 99.3Z" fill="white"/>
<path d="M86.5002 54.3999C79.2002 56.6999 68.3002 63.0999 62.1002 68.6999C51.3002 78.3999 44.0002 90.2999 39.4002 105.7C37.0002 113.4 36.7002 116.2 36.7002 128.5C36.7002 140.8 37.0002 143.6 39.4002 151.3C46.1002 173.7 58.9002 189.5 77.5002 198.5C82.4002 201 88.2002 203.2 90.3002 203.6L94.0002 204.2L85.5002 192.9C75.3002 179.3 65.1002 159.5 61.9002 147C55.1002 120.7 63.5002 92.6999 87.6002 61.1999C94.4002 52.4999 94.3002 51.9999 86.5002 54.3999Z" fill="white"/>
<path d="M171.5 64.1C181.5 77.4 191.9 97.5 195.1 109.5C198 120.6 198 136.6 195.1 147.5C191.9 159.6 181.5 179.6 171.5 192.9L163 204.2L166.7 203.6C168.8 203.2 174.8 200.9 180 198.3C188 194.4 190.9 192.3 198 185.1C207.8 175.2 213.3 165.8 217.6 151.5C220 143.6 220.3 140.9 220.3 128.5C220.3 116.2 220 113.4 217.6 105.7C210.9 83.3 198.1 67.5 179.5 58.5C174.6 56 168.8 53.8 166.7 53.4L163 52.8L171.5 64.1Z" fill="white"/>
</svg>
