<svg width="1188" height="260" viewBox="0 0 1188 260" fill="none" xmlns="http://www.w3.org/2000/svg">
<g filter="url(#filter0_d)">
<path d="M322 198C317.867 198 313.467 197.6 308.8 196.8C304.267 196 300.8 195 298.4 193.8V167.6C300.4 168.533 302.933 169.267 306 169.8C309.067 170.333 312.133 170.6 315.2 170.6C321.2 170.6 325.667 169.2 328.6 166.4C331.533 163.6 333 159.2 333 153.2V55.2H363.4V156C363.4 168.933 359.8 179.2 352.6 186.8C345.4 194.267 335.2 198 322 198ZM385.744 55.2H444.544C460.41 55.2 473.077 59.4 482.544 67.8C492.01 76.0667 496.744 87.6 496.744 102.4C496.744 117.6 492.01 129.267 482.544 137.4C473.21 145.533 460.544 149.6 444.544 149.6H416.144V195H385.744V55.2ZM440.144 124.2C457.344 124.2 465.944 116.933 465.944 102.4C465.944 94.2667 463.61 88.6 458.944 85.4C454.41 82.2 448.144 80.6 440.144 80.6H416.144V124.2H440.144ZM549.006 141.8L497.806 55.2H530.206L564.006 113.4L599.006 55.2H631.206L578.806 141.8V195H549.006V141.8ZM704.898 198C689.965 198 676.765 195.067 665.298 189.2C653.832 183.2 644.965 174.733 638.698 163.8C632.432 152.867 629.298 140 629.298 125.2C629.298 110.4 632.432 97.5333 638.698 86.6C644.965 75.5333 653.832 67.0667 665.298 61.2C676.765 55.2 689.965 52.2 704.898 52.2C724.232 52.2 740.365 56.6 753.298 65.4V94.2C747.432 89.2667 740.698 85.7333 733.098 83.6C725.632 81.3333 717.098 80.2 707.498 80.2C692.965 80.2 681.432 84.2667 672.898 92.4C664.498 100.4 660.298 111.333 660.298 125.2C660.298 139.2 664.565 150.267 673.098 158.4C681.632 166.4 693.098 170.4 707.498 170.4C717.365 170.4 726.098 169.267 733.698 167C741.298 164.6 748.365 160.8 754.898 155.6V184.4C742.632 193.467 725.965 198 704.898 198ZM811.892 55.2H842.292V195H811.892V55.2ZM865.259 99H894.459V110.8C898.859 105.867 904.059 102.2 910.059 99.8C916.193 97.2667 922.593 96 929.259 96C942.326 96 952.059 99.5333 958.459 106.6C964.993 113.533 968.259 122.933 968.259 134.8V195H938.059V138.2C938.059 125.8 932.326 119.6 920.859 119.6C915.793 119.6 911.059 120.867 906.659 123.4C902.259 125.8 898.526 129.4 895.459 134.2V195H865.259V99ZM996.106 120.8H982.306V99H996.106V84.8C996.106 72.4 999.906 62.8667 1007.51 56.2C1015.11 49.5333 1024.97 46.2 1037.11 46.2C1044.04 46.2 1050.04 47.2667 1055.11 49.4V73.6C1051.24 71.8667 1047.17 71 1042.91 71C1037.31 71 1033.11 72.2667 1030.31 74.8C1027.64 77.3333 1026.31 81.4667 1026.31 87.2V99H1049.11V120.8H1026.31V195H996.106V120.8ZM1119.93 198C1108.33 198 1098.13 195.933 1089.33 191.8C1080.67 187.533 1073.93 181.6 1069.13 174C1064.47 166.267 1062.13 157.267 1062.13 147C1062.13 137 1064.47 128.133 1069.13 120.4C1073.93 112.667 1080.67 106.667 1089.33 102.4C1098.13 98.1333 1108.33 96 1119.93 96C1131.4 96 1141.47 98.1333 1150.13 102.4C1158.93 106.667 1165.67 112.667 1170.33 120.4C1175.13 128.133 1177.53 137 1177.53 147C1177.53 157.267 1175.13 166.267 1170.33 174C1165.67 181.6 1159 187.533 1150.33 191.8C1141.67 195.933 1131.53 198 1119.93 198ZM1119.93 174.4C1128.07 174.4 1134.53 171.933 1139.33 167C1144.13 161.933 1146.53 155.267 1146.53 147C1146.53 138.467 1144.13 131.8 1139.33 127C1134.67 122.067 1128.2 119.6 1119.93 119.6C1111.67 119.6 1105.13 122.067 1100.33 127C1095.53 131.8 1093.13 138.467 1093.13 147C1093.13 155.267 1095.53 161.933 1100.33 167C1105.27 171.933 1111.8 174.4 1119.93 174.4Z" fill="white"/>
<path d="M112.5 1.1C82.2 5.3 56.4 18.3 35.9 39.6C18.9 57.4 8.1 77.9 2.9 102.1C-0.3 116.8 -0.3 139.2 2.9 154C13.6 204.1 51.9 242.4 102.1 253.1C116.8 256.3 139.2 256.3 153.9 253.1C204.1 242.4 242.4 204.1 253.1 154C254.9 145.7 255.3 140.3 255.3 128C255.3 115.7 254.9 110.3 253.1 102C242.4 51.9 203.5 13.1 153.9 3C141.9 0.499996 122.8 -0.300004 112.5 1.1ZM108.8 44.2C110.9 46.3 110.1 48 102.4 56.8C98.3 61.6 91.8 70.1 87.9 75.8C66 108.4 62.9 133 77 162.6C82.2 173.4 92.9 189.2 102.4 200.2C106.6 205 110 209.5 110 210.3C110 213.5 107.2 214.3 98.7 213.7C56 210.7 22.6 165.8 28 118.6C30.4 97.2 38.2 80.9 53 65.9C65.1 53.7 77 46.9 91.5 44C97.8 42.8 107.5 42.9 108.8 44.2ZM173.7 46.3C197.6 54.5 216.5 74 224.8 99.3C238.7 141.5 220.9 187.9 183.5 206.5C167.1 214.7 147 216.7 147 210.2C147 209.5 150.4 205 154.6 200.2C164 189.4 175.8 171.9 180.4 161.9C194 132.5 190.8 108.1 169.1 75.8C165.2 70.1 158.7 61.6 154.6 56.8C146.8 47.9 146.1 46.4 148.3 44.1C150.2 42.1 165 43.4 173.7 46.3ZM120.9 99.3L128.3 113L135.8 99L143.4 85H152.7C159.7 85 162.2 85.3 162.6 86.4C162.9 87.1 159.3 94.7 154.6 103.1L146.1 118.5L152.8 118.8C156.6 119 159.8 119.6 160.2 120.3C161.1 121.7 161.2 130.2 160.4 132.4C159.9 133.7 157.9 134 149.4 134H139V137.5V141H149.5C161.4 141 161.5 141.1 160.8 150.1L160.5 154.5L149.8 154.8L139.1 155.1L138.8 163.3L138.5 171.5H128H117.5L117.2 163.3L116.9 155.1L106.7 154.8L96.5 154.5V148V141.5L106.8 141.2L117 140.9V137.5V134.1L106.8 133.8L96.5 133.5V126.5V119.5L103.3 119.2C107 119 110 118.6 110 118.3C110 117.9 106.4 110.9 101.9 102.7C97.5 94.5 94.1 87.1 94.4 86.3C94.8 85.2 97 85 104.2 85.2L113.5 85.5L120.9 99.3Z" fill="white"/>
<path d="M86.5002 54.3999C79.2002 56.6999 68.3002 63.0999 62.1002 68.6999C51.3002 78.3999 44.0002 90.2999 39.4002 105.7C37.0002 113.4 36.7002 116.2 36.7002 128.5C36.7002 140.8 37.0002 143.6 39.4002 151.3C46.1002 173.7 58.9002 189.5 77.5002 198.5C82.4002 201 88.2002 203.2 90.3002 203.6L94.0002 204.2L85.5002 192.9C75.3002 179.3 65.1002 159.5 61.9002 147C55.1002 120.7 63.5002 92.6999 87.6002 61.1999C94.4002 52.4999 94.3002 51.9999 86.5002 54.3999Z" fill="white"/>
<path d="M171.5 64.1C181.5 77.4 191.9 97.5 195.1 109.5C198 120.6 198 136.6 195.1 147.5C191.9 159.6 181.5 179.6 171.5 192.9L163 204.2L166.7 203.6C168.8 203.2 174.8 200.9 180 198.3C188 194.4 190.9 192.3 198 185.1C207.8 175.2 213.3 165.8 217.6 151.5C220 143.6 220.3 140.9 220.3 128.5C220.3 116.2 220 113.4 217.6 105.7C210.9 83.3 198.1 67.5 179.5 58.5C174.6 56 168.8 53.8 166.7 53.4L163 52.8L171.5 64.1Z" fill="white"/>
</g>
<defs>
<filter id="filter0_d" x="0" y="0" width="1188" height="260" filterUnits="userSpaceOnUse" color-interpolation-filters="sRGB">
<feFlood flood-opacity="0" result="BackgroundImageFix"/>
<feColorMatrix in="SourceAlpha" type="matrix" values="0 0 0 0 0 0 0 0 0 0 0 0 0 0 0 0 0 0 127 0"/>
<feOffset dy="4"/>
<feColorMatrix type="matrix" values="0 0 0 0 0 0 0 0 0 0 0 0 0 0 0 0 0 0 0.25 0"/>
<feBlend mode="normal" in2="BackgroundImageFix" result="effect1_dropShadow"/>
<feBlend mode="normal" in="SourceGraphic" in2="effect1_dropShadow" result="shape"/>
</filter>
</defs>
</svg>
