<svg width="64" height="64" viewBox="0 0 64 64" fill="none" xmlns="http://www.w3.org/2000/svg">
<path d="M32 64C49.6731 64 64 49.6731 64 32C64 14.3269 49.6731 0 32 0C14.3269 0 0 14.3269 0 32C0 49.6731 14.3269 64 32 64Z" fill="#16449A"/>
<path d="M26.4008 10.7525L26.3679 10.752C15.5989 10.752 6.91211 20.3437 6.91211 32.128C6.91211 43.9122 15.5989 53.504 26.3679 53.504L26.405 53.5033L26.4875 53.4969L26.5816 53.4814L26.6866 53.4531L26.8005 53.4081L26.9185 53.3434L27.0338 53.2579L27.1385 53.1543L27.2261 53.0386L27.2933 52.9185L27.3402 52.8014L27.3696 52.6926L27.3855 52.5948L27.3916 52.5089L27.391 52.4342L27.386 52.3697L27.3391 52.1863L27.3229 52.1262L27.3096 52.0816L27.3017 52.0583L27.2903 52.03L27.2824 52.0138L27.269 51.9902L27.2096 51.8978L27.1831 51.8592L27.1272 51.792L26.9911 51.6497L26.8625 51.5167L26.6711 51.3165L26.4907 51.1251C26.4603 51.0926 26.4297 51.0598 26.3988 51.0267L26.2116 50.8241L26.0196 50.6136L25.8226 50.3948C25.7894 50.3577 25.7559 50.3201 25.7222 50.2822L25.5174 50.0502C24.3115 48.6755 23.1139 47.1573 21.9961 45.5231L21.9018 45.3847L21.7155 45.1079C21.6231 44.9695 21.5319 44.8312 21.4418 44.6929L21.2633 44.4164C18.5798 40.2236 16.9922 36.0816 16.9584 32.2541L16.9579 32.1263C16.9588 28.1399 18.657 23.8075 21.5324 19.4284L21.7156 19.1517L21.9019 18.875C21.9332 18.8289 21.9646 18.7827 21.9962 18.7366C23.1142 17.1019 24.3117 15.5834 25.5188 14.2066L25.6218 14.0896L25.8237 13.8622C25.8569 13.8251 25.8899 13.7883 25.9227 13.7518L26.117 13.5372L26.3066 13.3305C26.3378 13.2967 26.3689 13.2632 26.3997 13.23L26.5827 13.0344L26.7275 12.8815L26.9353 12.6647L27.0827 12.512L27.1111 12.4818L27.1473 12.4407L27.1905 12.3871L27.2036 12.3686L27.2282 12.3296L27.2733 12.2547L27.3008 12.2054L27.3094 12.1876L27.3171 12.1689L27.3242 12.1482L27.331 12.1243L27.3415 12.0795L27.3532 12.0205L27.3916 11.804L27.392 11.7709L27.389 11.698L27.3794 11.6158L27.3606 11.5244L27.3299 11.4248L27.2846 11.3194L27.223 11.2125L27.1452 11.1092L27.0534 11.0153L26.9523 10.9351L26.8472 10.871L26.7434 10.8233L26.6451 10.7902L26.5546 10.7691L26.4732 10.7574L26.4008 10.7525ZM23.826 13.0049L23.8529 13.0008L23.9789 12.8565C22.7208 14.2913 21.4734 15.8731 20.3057 17.5804C16.9723 22.4543 14.9517 27.3397 14.9105 31.9852L14.9099 32.1278C14.9094 36.6301 16.7784 41.3605 19.908 46.0884L20.1053 46.3839C20.1716 46.4824 20.2384 46.5809 20.3057 46.6794L20.4654 46.9114C21.5333 48.4526 22.6646 49.8895 23.8065 51.2045L23.8552 51.2603L23.798 51.2515C15.4339 49.8855 8.96011 41.8613 8.96011 32.128C8.96011 22.3947 15.4339 14.3704 23.826 13.0049Z" fill="white"/>
<path d="M37.8555 10.7525L37.8885 10.752C48.6574 10.752 57.3442 20.3437 57.3442 32.128C57.3442 43.9122 48.6574 53.504 37.8885 53.504L37.8513 53.5033L37.7688 53.4969L37.6748 53.4814L37.5697 53.4531L37.4559 53.4081L37.3379 53.3434L37.2226 53.2579L37.1178 53.1543L37.0302 53.0386L36.9631 52.9185L36.9162 52.8014L36.8867 52.6926L36.8709 52.5948L36.8648 52.5089L36.8654 52.4342L36.8703 52.3697L36.9172 52.1863L36.9335 52.1262L36.9467 52.0816L36.9546 52.0583L36.966 52.03L36.974 52.0138L36.9874 51.9902L37.0467 51.8978L37.0733 51.8592L37.1292 51.792L37.2653 51.6497L37.3939 51.5167L37.5852 51.3165L37.7656 51.1251C37.7961 51.0926 37.8267 51.0598 37.8575 51.0267L38.0447 50.8241L38.2368 50.6136L38.4337 50.3948C38.467 50.3577 38.5005 50.3201 38.5341 50.2822L38.7389 50.0502C39.9449 48.6755 41.1424 47.1573 42.2602 45.5231L42.3545 45.3847L42.5409 45.1079C42.6333 44.9695 42.7245 44.8312 42.8145 44.6929L42.9931 44.4164C45.6765 40.2236 47.2641 36.0816 47.2979 32.2541L47.2985 32.1263C47.2975 28.1399 45.5993 23.8075 42.7239 19.4284L42.5407 19.1517L42.3545 18.875C42.3232 18.8289 42.2917 18.7827 42.2602 18.7366C41.1422 17.1019 39.9446 15.5834 38.7375 14.2066L38.6346 14.0896L38.4327 13.8622C38.3995 13.8251 38.3665 13.7883 38.3337 13.7518L38.1393 13.5372L37.9497 13.3305C37.9185 13.2967 37.8875 13.2632 37.8566 13.23L37.6736 13.0344L37.5289 12.8815L37.321 12.6647L37.1737 12.512L37.1453 12.4818L37.1091 12.4407L37.0659 12.3871L37.0527 12.3686L37.0282 12.3296L36.983 12.2547L36.9555 12.2054L36.947 12.1876L36.9393 12.1689L36.9322 12.1482L36.9253 12.1243L36.9149 12.0795L36.9031 12.0205L36.8647 11.804L36.8644 11.7709L36.8673 11.698L36.877 11.6158L36.8958 11.5244L36.9265 11.4248L36.9718 11.3194L37.0334 11.2125L37.1112 11.1092L37.2029 11.0153L37.3041 10.9351L37.4092 10.871L37.5129 10.8233L37.6113 10.7902L37.7017 10.7691L37.7832 10.7574L37.8555 10.7525ZM40.4303 13.0049L40.4034 13.0008L40.2775 12.8565C41.5355 14.2913 42.7829 15.8731 43.9506 17.5804C47.2841 22.4543 49.3047 27.3397 49.3458 31.9852L49.3465 32.1278C49.3469 36.6301 47.4779 41.3605 44.3483 46.0884L44.1511 46.3839C44.0848 46.4824 44.018 46.5809 43.9506 46.6794L43.7909 46.9114C42.723 48.4526 41.5917 49.8895 40.4499 51.2045L40.4011 51.2603L40.4583 51.2515C48.8224 49.8855 55.2962 41.8613 55.2962 32.128C55.2962 22.3947 48.8224 14.3704 40.4303 13.0049Z" fill="white"/>
<path d="M27.9409 21.3043H24.0664C23.7865 21.3043 23.5596 21.5313 23.5596 21.8112C23.5596 21.895 23.5804 21.9776 23.6201 22.0514L27.7043 29.6415C27.7324 29.6938 27.7128 29.759 27.6605 29.7871C27.6449 29.7956 27.6274 29.8 27.6096 29.8H24.5628C24.2828 29.8 24.0559 30.0269 24.0559 30.3069V32.9744C24.0559 33.2544 24.2828 33.4813 24.5628 33.4813H29.2756C29.335 33.4813 29.3832 33.5295 29.3832 33.5888V35.2041C29.3832 35.2634 29.335 35.3116 29.2756 35.3116H24.5628C24.2828 35.3116 24.0559 35.5385 24.0559 35.8185V38.2447C24.0559 38.5247 24.2828 38.7516 24.5628 38.7516H29.2756C29.335 38.7516 29.3832 38.7998 29.3832 38.8591V42.4448C29.3832 42.7247 29.6101 42.9517 29.89 42.9517H34.1372C34.4171 42.9517 34.644 42.7247 34.644 42.4448V38.8591C34.644 38.7998 34.6922 38.7516 34.7516 38.7516H39.5694C39.8493 38.7516 40.0762 38.5247 40.0762 38.2447V35.8185C40.0762 35.5385 39.8493 35.3116 39.5694 35.3116H34.7516C34.6922 35.3116 34.644 35.2634 34.644 35.2041V33.5888C34.644 33.5295 34.6922 33.4813 34.7516 33.4813H39.5694C39.8493 33.4813 40.0762 33.2544 40.0762 32.9744V30.3069C40.0762 30.0269 39.8493 29.8 39.5694 29.8H36.5461C36.4867 29.8 36.4386 29.7518 36.4386 29.6925C36.4386 29.6743 36.4432 29.6565 36.4519 29.6406L40.6285 22.0557C40.7635 21.8105 40.6742 21.5022 40.4289 21.3672C40.354 21.3259 40.2699 21.3043 40.1844 21.3043H36.2094C36.0232 21.3043 35.8521 21.4063 35.7635 21.5701L32.1751 28.2046C32.1469 28.2569 32.0816 28.2763 32.0294 28.248C32.0111 28.2381 31.996 28.2231 31.9861 28.2047L28.3864 21.5695C28.2978 21.4061 28.1268 21.3043 27.9409 21.3043Z" fill="white"/>
</svg>
