<svg width="812" height="263" viewBox="0 0 812 263" fill="none" xmlns="http://www.w3.org/2000/svg">
<path d="M22.88 134.64C19.2427 134.64 15.3707 134.288 11.264 133.584C7.27467 132.88 4.224 132 2.112 130.944V107.888C3.872 108.709 6.10133 109.355 8.8 109.824C11.4987 110.293 14.1973 110.528 16.896 110.528C22.176 110.528 26.1067 109.296 28.688 106.832C31.2693 104.368 32.56 100.496 32.56 95.216V8.97599H59.312V97.68C59.312 109.061 56.144 118.096 49.808 124.784C43.472 131.355 34.496 134.64 22.88 134.64ZM78.9745 8.97599H130.719C144.681 8.97599 155.828 12.672 164.159 20.064C172.489 27.3387 176.655 37.488 176.655 50.512C176.655 63.888 172.489 74.1547 164.159 81.312C155.945 88.4693 144.799 92.048 130.719 92.048H105.727V132H78.9745V8.97599ZM126.847 69.696C141.983 69.696 149.551 63.3013 149.551 50.512C149.551 43.3547 147.497 38.368 143.391 35.552C139.401 32.736 133.887 31.328 126.847 31.328H105.727V69.696H126.847ZM222.646 85.184L177.59 8.97599H206.102L235.846 60.192L266.646 8.97599H294.982L248.87 85.184V132H222.646V85.184ZM359.831 134.64C346.689 134.64 335.073 132.059 324.983 126.896C314.892 121.616 307.089 114.165 301.575 104.544C296.06 94.9227 293.303 83.6 293.303 70.576C293.303 57.552 296.06 46.2293 301.575 36.608C307.089 26.8693 314.892 19.4187 324.983 14.256C335.073 8.97599 346.689 6.33599 359.831 6.33599C376.844 6.33599 391.041 10.208 402.423 17.952V43.296C397.26 38.9547 391.335 35.8453 384.647 33.968C378.076 31.9733 370.567 30.976 362.119 30.976C349.329 30.976 339.18 34.5547 331.671 41.712C324.279 48.752 320.583 58.3733 320.583 70.576C320.583 82.896 324.337 92.6347 331.847 99.792C339.356 106.832 349.447 110.352 362.119 110.352C370.801 110.352 378.487 109.355 385.175 107.36C391.863 105.248 398.081 101.904 403.831 97.328V122.672C393.036 130.651 378.369 134.64 359.831 134.64ZM453.985 8.97599H480.737V132H453.985V8.97599ZM500.948 47.52H526.644V57.904C530.516 53.5627 535.092 50.336 540.372 48.224C545.77 45.9947 551.402 44.88 557.268 44.88C568.767 44.88 577.332 47.9893 582.964 54.208C588.714 60.3093 591.588 68.5813 591.588 79.024V132H565.012V82.016C565.012 71.104 559.967 65.648 549.876 65.648C545.418 65.648 541.252 66.7627 537.38 68.992C533.508 71.104 530.223 74.272 527.524 78.496V132H500.948V47.52ZM616.094 66.704H603.95V47.52H616.094V35.024C616.094 24.112 619.438 15.7227 626.126 9.856C632.814 3.98933 641.496 1.056 652.174 1.056C658.275 1.056 663.555 1.99466 668.014 3.87199V25.168C664.611 23.6427 661.032 22.88 657.278 22.88C652.35 22.88 648.654 23.9947 646.19 26.224C643.843 28.4533 642.67 32.0907 642.67 37.136V47.52H662.734V66.704H642.67V132H616.094V66.704ZM725.062 134.64C714.854 134.64 705.878 132.821 698.134 129.184C690.508 125.429 684.582 120.208 680.358 113.52C676.252 106.715 674.198 98.7947 674.198 89.76C674.198 80.96 676.252 73.1573 680.358 66.352C684.582 59.5467 690.508 54.2667 698.134 50.512C705.878 46.7573 714.854 44.88 725.062 44.88C735.153 44.88 744.012 46.7573 751.638 50.512C759.382 54.2667 765.308 59.5467 769.414 66.352C773.638 73.1573 775.75 80.96 775.75 89.76C775.75 98.7947 773.638 106.715 769.414 113.52C765.308 120.208 759.441 125.429 751.814 129.184C744.188 132.821 735.27 134.64 725.062 134.64ZM725.062 113.872C732.22 113.872 737.91 111.701 742.134 107.36C746.358 102.901 748.47 97.0347 748.47 89.76C748.47 82.2507 746.358 76.384 742.134 72.16C738.028 67.8187 732.337 65.648 725.062 65.648C717.788 65.648 712.038 67.8187 707.814 72.16C703.59 76.384 701.478 82.2507 701.478 89.76C701.478 97.0347 703.59 102.901 707.814 107.36C712.156 111.701 717.905 113.872 725.062 113.872Z" fill="white"/>
<path d="M42.72 258.8C30.48 258.8 21.24 255.6 15 249.2C8.76 242.72 5.64 234.04 5.64 223.16V173.12H23.88V223.4C23.88 229.48 25.56 234.12 28.92 237.32C32.28 240.52 36.88 242.12 42.72 242.12C48.48 242.12 53 240.52 56.28 237.32C59.64 234.12 61.32 229.48 61.32 223.4V173.12H79.56V223.16C79.56 234.04 76.48 242.72 70.32 249.2C64.16 255.6 54.96 258.8 42.72 258.8ZM92.7525 199.4H110.272V206.48C112.912 203.52 116.032 201.32 119.632 199.88C123.312 198.36 127.152 197.6 131.152 197.6C138.992 197.6 144.832 199.72 148.672 203.96C152.592 208.12 154.553 213.76 154.553 220.88V257H136.432V222.92C136.432 215.48 132.992 211.76 126.112 211.76C123.072 211.76 120.232 212.52 117.592 214.04C114.952 215.48 112.712 217.64 110.872 220.52V257H92.7525V199.4ZM200.061 258.8C193.101 258.8 186.981 257.56 181.701 255.08C176.501 252.52 172.461 248.96 169.581 244.4C166.781 239.76 165.381 234.36 165.381 228.2C165.381 222.2 166.781 216.88 169.581 212.24C172.461 207.6 176.501 204 181.701 201.44C186.981 198.88 193.101 197.6 200.061 197.6C206.941 197.6 212.981 198.88 218.181 201.44C223.461 204 227.501 207.6 230.301 212.24C233.181 216.88 234.621 222.2 234.621 228.2C234.621 234.36 233.181 239.76 230.301 244.4C227.501 248.96 223.501 252.52 218.301 255.08C213.101 257.56 207.021 258.8 200.061 258.8ZM200.061 244.64C204.941 244.64 208.821 243.16 211.701 240.2C214.581 237.16 216.021 233.16 216.021 228.2C216.021 223.08 214.581 219.08 211.701 216.2C208.901 213.24 205.021 211.76 200.061 211.76C195.101 211.76 191.181 213.24 188.301 216.2C185.421 219.08 183.981 223.08 183.981 228.2C183.981 233.16 185.421 237.16 188.301 240.2C191.261 243.16 195.181 244.64 200.061 244.64ZM245.234 212.48H236.954V199.4H245.234V190.88C245.234 183.44 247.514 177.72 252.074 173.72C256.634 169.72 262.554 167.72 269.834 167.72C273.994 167.72 277.594 168.36 280.634 169.64V184.16C278.314 183.12 275.874 182.6 273.314 182.6C269.954 182.6 267.434 183.36 265.754 184.88C264.154 186.4 263.354 188.88 263.354 192.32V199.4H277.034V212.48H263.354V257H245.234V212.48ZM290.731 212.48H282.451V199.4H290.731V191.24C290.731 186.28 291.851 182.04 294.091 178.52C296.331 174.92 299.371 172.24 303.211 170.48C307.131 168.64 311.491 167.72 316.291 167.72C320.451 167.72 324.051 168.36 327.091 169.64V184.16C324.771 183.12 322.331 182.6 319.771 182.6C316.171 182.6 313.451 183.48 311.611 185.24C309.771 186.92 308.851 189.4 308.851 192.68V199.4H350.611V257H332.491V212.48H308.851V257H290.731V212.48ZM341.371 190.52C338.571 190.52 336.211 189.6 334.291 187.76C332.451 185.92 331.531 183.6 331.531 180.8C331.531 178.08 332.491 175.8 334.411 173.96C336.331 172.04 338.651 171.08 341.371 171.08C344.171 171.08 346.531 172.04 348.451 173.96C350.371 175.8 351.331 178.08 351.331 180.8C351.331 183.6 350.371 185.92 348.451 187.76C346.531 189.6 344.171 190.52 341.371 190.52ZM396.654 258.8C386.254 258.8 377.974 256.16 371.814 250.88C365.654 245.52 362.574 238 362.574 228.32C362.574 218.64 365.654 211.12 371.814 205.76C378.054 200.32 386.374 197.6 396.774 197.6C406.214 197.6 413.734 199.36 419.334 202.88V217.16C416.774 215.32 413.774 213.96 410.334 213.08C406.974 212.2 403.414 211.76 399.654 211.76C394.054 211.76 389.574 213.12 386.214 215.84C382.854 218.56 381.174 222.72 381.174 228.32C381.174 233.92 382.814 238.08 386.094 240.8C389.454 243.44 393.934 244.76 399.534 244.76C407.294 244.76 414.134 242.88 420.054 239.12V253.28C414.134 256.96 406.334 258.8 396.654 258.8ZM441.291 190.52C438.491 190.52 436.131 189.6 434.211 187.76C432.291 185.92 431.331 183.6 431.331 180.8C431.331 178.08 432.291 175.8 434.211 173.96C436.131 172.04 438.491 171.08 441.291 171.08C444.091 171.08 446.451 172.04 448.371 173.96C450.291 175.8 451.251 178.08 451.251 180.8C451.251 183.6 450.291 185.92 448.371 187.76C446.451 189.6 444.091 190.52 441.291 190.52ZM432.171 199.4H450.411V257H432.171V199.4ZM486.354 258.8C479.314 258.8 473.554 257.04 469.074 253.52C464.674 249.92 462.474 245.04 462.474 238.88C462.474 232.48 464.594 227.52 468.834 224C473.074 220.4 479.074 218.6 486.834 218.6C490.274 218.6 493.554 218.96 496.674 219.68C499.794 220.4 502.554 221.4 504.954 222.68V221.24C504.954 217.64 503.674 215 501.114 213.32C498.554 211.64 494.634 210.8 489.354 210.8C482.314 210.8 475.834 212.12 469.914 214.76V201.56C472.474 200.44 475.794 199.52 479.874 198.8C483.954 198 488.034 197.6 492.114 197.6C502.514 197.6 510.274 199.76 515.394 204.08C520.514 208.32 523.074 214.28 523.074 221.96V257H506.034V251.72C501.154 256.44 494.594 258.8 486.354 258.8ZM491.274 246.8C494.234 246.8 496.914 246.24 499.314 245.12C501.714 244 503.594 242.44 504.954 240.44V234.68C500.874 231.96 496.394 230.6 491.514 230.6C488.154 230.6 485.554 231.32 483.714 232.76C481.954 234.12 481.074 236.16 481.074 238.88C481.074 241.44 481.954 243.4 483.714 244.76C485.474 246.12 487.994 246.8 491.274 246.8ZM536.27 168.32H554.39V257H536.27V168.32Z" fill="white"/>
</svg>
